PathFileType	3	(X/Y/Z)	F:\ViconData\AntennenMessung\Messung1\Session1\ID02.trc
DataRate	CameraRate	NumFrames	NumMarkers	Units	OrigDataRate	OrigDataStartFrame	OrigNumFrames
120.0	120.0	6	70	mm	120.0	1	924	
Frame#	Time	Ashort			Along			Atop			A4			Bshort			Blong			Btop			B4			Cshort			Clong			Ctop			C4			Dshort			Dlong			Dtop			D4			Eshort			Elong			Etop			E4			Fshort			Flong			Ftop			F4			Gshort			Glong			Gtop			G4			Hshort			Hlong			Htop			H4			I1			I2			I3			I4			I5			WandAshort			WandAlong			WandAtop			WandA4			WandA15			WandBshort			WandB4			WandB5			WandBtop			WandBlong			WandCshort			WandClong			WandCtop			WandC4			WandC5			Acenter			Aantenna			Bcenter			Bantenna			Ccenter			Cantenna			Dcenter			Dantenna			Ecenter			Eantenna			Fcenter			Fantenna			Gcenter			Gantenna			Hcenter			Hantenna			Icenter			Iantenna			
		X1	Y1	Z1	X2	Y2	Z2	X3	Y3	Z3	X4	Y4	Z4	X5	Y5	Z5	X6	Y6	Z6	X7	Y7	Z7	X8	Y8	Z8	X9	Y9	Z9	X10	Y10	Z10	X11	Y11	Z11	X12	Y12	Z12	X13	Y13	Z13	X14	Y14	Z14	X15	Y15	Z15	X16	Y16	Z16	X17	Y17	Z17	X18	Y18	Z18	X19	Y19	Z19	X20	Y20	Z20	X21	Y21	Z21	X22	Y22	Z22	X23	Y23	Z23	X24	Y24	Z24	X25	Y25	Z25	X26	Y26	Z26	X27	Y27	Z27	X28	Y28	Z28	X29	Y29	Z29	X30	Y30	Z30	X31	Y31	Z31	X32	Y32	Z32	X33	Y33	Z33	X34	Y34	Z34	X35	Y35	Z35	X36	Y36	Z36	X37	Y37	Z37	X38	Y38	Z38	X39	Y39	Z39	X40	Y40	Z40	X41	Y41	Z41	X42	Y42	Z42	X43	Y43	Z43	X44	Y44	Z44	X45	Y45	Z45	X46	Y46	Z46	X47	Y47	Z47	X48	Y48	Z48	X49	Y49	Z49	X50	Y50	Z50	X51	Y51	Z51	X52	Y52	Z52	X53	Y53	Z53	X54	Y54	Z54	X55	Y55	Z55	X56	Y56	Z56	X57	Y57	Z57	X58	Y58	Z58	X59	Y59	Z59	X60	Y60	Z60	X61	Y61	Z61	X62	Y62	Z62	X63	Y63	Z63	X64	Y64	Z64	X65	Y65	Z65	X66	Y66	Z66	X67	Y67	Z67	X68	Y68	Z68	X69	Y69	Z69	X70	Y70	Z70	
1	0	-1038.2417	214.42868	-1644.127	-1109.3102	203.75114	-1599.5918	-1063.5017	173.23848	-1625.8641	-1053.9137	261.83362	-1635.0229	-1352.9799	234.82492	1003.9852	-1281.2985	227.10834	1052.4572	-1323.0056	194.06071	1020.7766	-1284.5454	287.83484	1052.6875	813.97552	187.65727	1209.465	892.42993	178.49857	1179.2185	844.60797	145.16603	1198.2772	860.55139	292.29828	1167.1632	1115.9011	209.87259	-1401.7374	1056.2656	194.19534	-1460.2737	1094.9834	162.06808	-1423.8362	1069.8982	238.62059	-1425.9618	-1204.4419	1685.8884	-1563.3815	-1129.0773	1688.1873	-1606.0034	-1173.0901	1724.4237	-1581.9984	-1133.5369	1581.0437	-1603.4564	-1239.7471	1699.3468	1119.2943	-1309.4778	1698.9391	1071.8085	-1270.3409	1736.1898	1096.6561	-1244.7065	1593.6082	1106.5973	988.9317	1664.2427	1162.233	955.42853	1701.0804	1182.3822	921.8147	1662.2308	1214.8004	939.8161	1659.3723	1159.9158	999.30621	1668.4834	-1579.4924	1058.8341	1669.9268	-1518.7228	1025.0947	1707.9417	-1551.1483	1059.2906	1672.1942	-1585.6207	-541.97302	1144.114	-298.3064	-545.74109	1145.1583	-213.92993	-544.16827	1181.5748	-260.90396	-575.74554	1142.3763	-262.76593	-495.90958	1146.1157	-258.42419																																														-1068.5491	209.8752	-1625.1348	-1073.8707	248.50276	-1624.3657	-1321.8555	231.47433	1025.032	-1320.6648	270.20645	1029.437	848.3103	183.64903	1196.2278	852.03992	222.41536	1194.1633	1088.7551	202.73636	-1428.3828	1082.8871	241.05363	-1432.6666	-1171.8427	1686.8826	-1581.8176	-1170.5476	1647.9047	-1581.6299	-1271.0322	1699.1638	1097.9894	-1271.76	1660.1958	1099.3925	951.38507	1705.5261	1184.814	970.47876	1733.4822	1165.4518	1026.564	1669.1442	-1551.6659	1028.0397	1630.1755	-1552.1859	-543.66467	1144.5829	-260.42365	-543.13391	1105.5897	-259.91742
2	0.0083333333	-1038.2271	214.4178	-1644.1505	-1109.1887	203.4996	-1599.7019	-1063.5328	173.19067	-1625.8373	-1053.95	261.85709	-1635.0139	-1352.8062	235.1776	1003.9364	-1281.3781	227.38957	1052.307	-1323.0026	194.09723	1020.7647	-1284.6239	287.85486	1052.76	814.01776	187.67706	1209.4802	892.45288	178.49759	1179.1636	844.63361	145.12747	1198.3064	860.7652	292.49847	1167.2145	1115.7944	209.43272	-1401.5333	1056.2502	194.16263	-1460.2815	1095.0176	162.07828	-1423.8495	1069.8828	238.62151	-1425.9698	-1204.4381	1685.8878	-1563.3856	-1129.1246	1688.4109	-1606.8726	-1173.1488	1724.3148	-1581.8849	-1133.5306	1581.0431	-1603.4683	-1239.7589	1699.3538	1119.3107	-1309.418	1698.8551	1071.7756	-1270.3654	1736.2308	1096.6771	-1244.7091	1593.6193	1106.5903	988.95654	1664.2607	1162.2756	955.25659	1701.2495	1182.3728	921.87897	1662.2334	1214.7623	939.80145	1659.37	1159.9014	999.30389	1668.4978	-1579.4949	1059.049	1670.2113	-1518.6775	1025.0957	1707.9442	-1551.1467	1059.2905	1672.1929	-1585.6218	-541.96753	1144.1115	-298.31024	-545.73615	1145.1722	-213.93568	-544.1756	1181.5903	-260.90009	-575.74512	1142.3649	-262.76309	-495.94406	1146.1837	-258.85596																																														-1068.6785	209.7325	-1625.0763	-1074.1156	248.34328	-1624.2722	-1321.7423	231.7906	1024.9725	-1320.4471	270.52847	1029.297	848.33514	183.6608	1196.2158	852.05902	222.4256	1194.1127	1088.8531	202.52365	-1428.1143	1083.0087	240.87062	-1432.1578	-1172.0233	1686.9736	-1582.1022	-1170.8484	1647.9921	-1582.3291	-1270.9979	1699.1301	1097.9933	-1271.6622	1660.1603	1099.3756	951.40179	1705.4803	1184.6716	970.46655	1733.4078	1165.24	1026.6866	1669.2831	-1551.6205	1028.2902	1630.3188	-1552.0978	-543.66022	1144.5879	-260.41177	-543.11713	1105.595	-259.89722
3	0.016666667	-1038.2406	214.42043	-1644.136	-1109.1771	203.48761	-1599.704	-1063.5858	172.54282	-1625.5347	-1053.9227	261.90472	-1635.0287	-1353.0121	234.83615	1003.9655	-1281.2468	227.13397	1052.3922	-1323.0302	194.03723	1020.8027	-1284.5841	287.84164	1052.7175	813.97687	187.73163	1209.452	892.39368	178.47203	1179.172	844.19263	145.53223	1198.2109	860.63196	292.54974	1167.2955	1115.8917	209.85715	-1401.7358	1056.255	194.18277	-1460.2994	1094.9752	162.02251	-1423.8615	1069.9021	238.59349	-1425.9673	-1204.4399	1685.8811	-1563.3815	-1129.0824	1688.2065	-1606.0114	-1173.0762	1724.4108	-1582.0066	-1133.5331	1581.0532	-1603.4833	-1239.743	1699.3428	1119.2985	-1309.5342	1699.0909	1071.8682	-1270.3236	1736.1771	1096.6482	-1244.6992	1593.5558	1106.4468	988.95526	1664.2278	1162.2714	955.85345	1702.3207	1181.1049	921.74329	1662.2261	1214.7413	939.77985	1659.3694	1159.8904	999.31445	1668.4858	-1579.4969	1058.8278	1669.937	-1518.7296	1025.0974	1707.952	-1551.1484	1059.2968	1672.1835	-1585.6213	-541.9729	1144.1051	-298.31552	-545.73645	1145.1614	-213.93503	-544.17731	1181.5751	-260.90329	-575.7561	1142.3735	-262.75955	-495.90686	1146.1165	-258.42026																																														-1068.9242	209.69141	-1624.9167	-1074.4708	248.28961	-1624.275	-1321.8418	231.49081	1024.9988	-1320.6129	270.2291	1029.3389	847.97314	183.71727	1196.3246	851.81097	222.48071	1194.4097	1088.7372	202.72011	-1428.4016	1082.8638	241.03761	-1432.6763	-1171.8208	1686.8876	-1581.8342	-1170.5167	1647.9099	-1581.6552	-1271.1006	1699.2295	1097.9877	-1271.92	1660.2637	1099.4004	953.16919	1705.4095	1182.6321	972.83655	1732.4351	1162.5371	1026.5714	1669.1505	-1551.6655	1028.052	1630.182	-1552.1849	-543.66321	1144.5795	-260.41721	-543.1214	1105.5865	-259.90485
4	0.025	-1038.2489	214.39046	-1644.132	-1109.1857	203.51775	-1599.7224	-1063.4447	173.25218	-1625.8383	-1054.1479	262.04504	-1634.946	-1352.9415	235.07578	1003.92	-1281.2761	227.10815	1052.4741	-1322.9824	194.05426	1020.805	-1284.6331	287.8327	1052.7355	813.96283	187.66821	1209.4147	892.43121	178.49429	1179.2528	844.64435	144.99036	1198.3821	860.53198	292.30865	1167.2922	1115.8932	209.86418	-1401.7379	1056.2833	194.43623	-1460.5089	1094.9689	162.03021	-1423.8275	1069.8905	238.61392	-1425.9657	-1204.4355	1685.8826	-1563.3817	-1129.1234	1688.3687	-1606.7748	-1173.1362	1724.3097	-1581.8768	-1133.514	1581.021	-1603.4495	-1239.7494	1699.3468	1119.3003	-1309.4371	1698.9017	1071.7887	-1270.3524	1736.2087	1096.6631	-1244.7308	1593.6072	1106.5807	988.92786	1664.2217	1162.2366	957.4718	1700.182	1183.6699	922.51007	1662.0647	1214.8135	939.75751	1659.3612	1159.9681	999.31714	1668.4935	-1579.5149	1059.0405	1670.2181	-1518.6774	1025.1028	1707.9553	-1551.1406	1059.2966	1672.1943	-1585.6139	-541.97107	1144.1099	-298.31375	-545.73157	1145.1659	-213.93433	-544.17072	1181.5728	-260.90909	-575.72205	1142.5458	-262.72653	-495.94983	1146.1818	-258.85587																																														-1068.5959	209.73907	-1625.1333	-1074.0468	248.34908	-1624.3873	-1321.7058	231.60304	1025.0824	-1320.3892	270.33035	1029.494	848.32758	183.65054	1196.2054	852.02069	222.41389	1194.0232	1088.8789	202.87245	-1428.3721	1083.1617	241.21449	-1432.6384	-1172.0109	1686.9529	-1582.0641	-1170.8364	1647.9711	-1582.2593	-1271.0157	1699.1471	1097.9834	-1271.7135	1660.1781	1099.3717	952.92255	1705.3824	1186.7697	972.72418	1733.5869	1168.5104	1026.7043	1669.2842	-1551.6167	1028.318	1630.3207	-1552.0963	-543.65967	1144.5841	-260.42331	-543.12097	1105.5911	-259.91122
5	0.033333333	-1038.225	214.41701	-1644.1323	-1109.2979	203.7076	-1599.5896	-1063.5603	172.61673	-1625.5369	-1053.9423	261.87817	-1635.0206	-1353.007	234.80986	1003.9415	-1281.2737	227.10292	1052.4528	-1322.9966	194.09976	1020.7861	-1284.6022	287.84125	1052.7301	813.99426	187.69705	1209.4227	892.40167	178.37589	1179.2428	844.21582	145.56667	1198.1694	860.6731	292.49188	1167.311	1115.8809	209.84865	-1401.7391	1056.2688	194.16411	-1460.2762	1094.9919	162.09213	-1423.8612	1069.8203	238.55246	-1425.9822	-1204.5378	1685.9855	-1563.152	-1129.0903	1688.1952	-1606.0166	-1173.0836	1724.4172	-1581.9988	-1133.5355	1581.0422	-1603.4523	-1239.7595	1699.3505	1119.2905	-1309.474	1698.9451	1071.8036	-1270.3562	1736.2159	1096.6643	-1244.7114	1593.7832	1106.4741	988.92896	1664.259	1162.2433	955.82727	1702.2593	1181.0933	921.79449	1662.27	1214.7156	939.78119	1659.3772	1159.9078	999.30237	1668.5109	-1579.5002	1058.8324	1669.9421	-1518.7092	1025.0869	1707.9515	-1551.1492	1059.2991	1672.2074	-1585.6265	-541.97876	1144.1139	-298.2998	-545.7287	1145.1505	-213.93176	-544.16309	1181.5771	-260.91418	-575.71967	1142.5275	-262.72632	-495.96582	1146.1785	-258.86536																																														-1068.8066	209.80887	-1624.9662	-1074.2535	248.42209	-1624.3735	-1321.8434	231.46167	1025.0166	-1320.6479	270.19583	1029.4023	848.0318	183.65062	1196.3213	851.91565	222.41113	1194.4402	1088.7465	202.70932	-1428.384	1082.855	241.02493	-1432.6508	-1171.8345	1686.9431	-1581.7319	-1170.535	1647.9659	-1581.4543	-1271.0393	1699.1685	1097.9838	-1271.7581	1660.1997	1099.3716	953.07489	1705.4189	1182.6604	972.69055	1732.4774	1162.5591	1026.5532	1669.166	-1551.672	1028.0267	1630.1974	-1552.1975	-543.66162	1144.5791	-260.43729	-543.13312	1105.5859	-259.93469
6	0.041666667	-1038.2673	214.41905	-1644.158	-1109.2877	203.6862	-1599.5631	-1063.5682	172.61586	-1625.5035	-1053.9244	261.89035	-1635.0122	-1353.02	234.83641	1003.9345	-1281.2673	227.07814	1052.4341	-1323.0272	194.05833	1020.8539	-1284.627	287.8512	1052.7576	813.92206	187.68121	1209.5417	892.42499	178.38077	1179.2506	844.57672	145.19066	1198.1685	860.60223	292.26627	1167.2484	1115.8777	209.84349	-1401.7267	1056.2578	194.13655	-1460.2469	1095.0521	162.21416	-1423.8729	1069.8888	238.62126	-1425.9635	-1204.5378	1685.9998	-1563.1554	-1129.0818	1688.2045	-1606.0356	-1173.0793	1724.4091	-1581.9913	-1133.5081	1581.0308	-1603.4454	-1239.7334	1699.3179	1119.2822	-1309.4078	1698.8479	1071.7664	-1270.3337	1736.1837	1096.6582	-1244.7012	1593.9695	1106.5112	988.83624	1664.1476	1162.2638	957.45978	1700.2257	1183.5912	921.82153	1662.239	1214.7654	939.75232	1659.3826	1159.9675	999.28766	1668.5154	-1579.4949	1059.0221	1670.1963	-1518.6562	1025.0963	1707.9589	-1551.144	1059.3181	1672.2102	-1585.6284	-541.9801	1144.1027	-298.28638	-545.73322	1145.1727	-213.92743	-544.16418	1181.5815	-260.91165	-575.72333	1142.5144	-262.75888	-495.97357	1146.1837	-258.85809																																														-1068.8448	209.79808	-1624.9578	-1074.3237	248.40714	-1624.3914	-1321.8071	231.46152	1025.032	-1320.5436	270.20007	1029.3595	848.3844	183.59837	1196.244	852.22717	222.35995	1194.302	1088.7675	202.70125	-1428.3369	1082.8203	241.01297	-1432.561	-1171.8403	1686.9551	-1581.7367	-1170.5508	1647.9772	-1581.4718	-1270.9802	1699.1069	1097.9729	-1271.6597	1660.1375	1099.3545	952.73682	1705.6562	1186.8015	972.76843	1733.7886	1168.6824	1026.6627	1669.2855	-1551.6135	1028.2412	1630.3204	-1552.0867	-543.66473	1144.583	-260.42014	-543.13831	1105.5898	-259.90216
